<svg xmlns="http://www.w3.org/2000/svg" width="22" height="22" viewBox="0 0 22 22"><path fill="#11142d" d="M15.686.25c3.646 0 6.064 2.598 6.064 6.335h0v8.83c0 3.737-2.42 6.335-6.064 6.335h0-9.37C2.67 21.75.25 19.152.25 15.415h0v-8.83C.25 2.85 2.675.25 6.314.25h0zm0 1.5h-9.37c-2.786 0-4.564 1.907-4.564 4.835h0v8.83c0 2.932 1.772 4.835 4.564 4.835h9.37c2.792 0 4.564-1.903 4.564-4.835h0v-8.83c0-2.932-1.772-4.835-4.564-4.835h0zM11 6.577a.75.75 0 0 1 .743.648l.007.102v2.913h2.918a.75.75 0 0 1 .102 1.493l-.102.007H11.75v2.914a.75.75 0 0 1-1.493.102l-.007-.102V11.74H7.333a.75.75 0 0 1-.102-1.493l.102-.007h2.916V7.327a.75.75 0 0 1 .75-.75z"/></svg>