<svg xmlns="http://www.w3.org/2000/svg" width="22" height="22" viewBox="0 0 22 22">
  <path fill="#808191" d="M11,0 C17.0751322,0 22,4.92486775 22,11 C22,17.0751322 17.0751322,22 11,22 C4.92486775,22 0,17.0751322 0,11 C0,4.92486775 4.92486775,0 11,0 Z M11,2 C6.02943725,2 2,6.02943725 2,11 C2,15.9705627 6.02943725,20 11,20 C15.9705627,20 20,15.9705627 20,11 C20,6.02943725 15.9705627,2 11,2 Z M11,5 C11.5128358,5 11.9355072,5.38604019 11.9932723,5.88337887 L12,6 L12,10 L16,10 C16.5522847,10 17,10.4477153 17,11 C17,11.5128358 16.6139598,11.9355072 16.1166211,11.9932723 L16,12 L12,12 L12,16 C12,16.5522847 11.5522847,17 11,17 C10.4871642,17 10.0644928,16.6139598 10.0067277,16.1166211 L10,16 L10,12 L6,12 C5.44771525,12 5,11.5522847 5,11 C5,10.4871642 5.38604019,10.0644928 5.88337887,10.0067277 L6,10 L10,10 L10,6 C10,5.44771525 10.4477153,5 11,5 Z"/>
</svg>
