<svg xmlns="http://www.w3.org/2000/svg" width="13" height="10" viewBox="0 0 13 10">
  <path fill="#11142D" d="M5.707,0.293 C6.06323507,0.649268533 6.09880222,1.21491473 5.79,1.613 L5.707,1.707 L3.415,4 L11.329,4 C11.8580934,4.00058686 12.2951648,4.41321046 12.3261721,4.94139481 C12.3571794,5.46957917 11.9713904,5.93050917 11.446,5.993 L11.33,6 L3.415,6 L5.707,8.293 C6.06323507,8.64926853 6.09880222,9.21491473 5.79,9.613 L5.707,9.707 C5.35073147,10.0632351 4.78508527,10.0988022 4.387,9.79 L4.293,9.707 L0.293,5.707 L0.22,5.625 L0.293,5.707 C0.257968209,5.67209184 0.225547662,5.63465781 0.196,5.595 L0.146,5.52 L0.126,5.483 L0.096,5.423 L0.07,5.37 L0.05,5.312 L0.036,5.266 L0.02,5.2 L0.01,5.148 L0.004,5.1 L-5.80000179e-08,5.02 L-5.80000179e-08,4.982 L0.004,4.912 L-5.80000179e-08,5 C-5.80000179e-08,4.95012988 0.00365982268,4.90032698 0.011,4.851 L0.02,4.8 L0.035,4.735 L0.049,4.689 L0.069,4.629 L0.092,4.577 L0.122,4.517 L0.142,4.481 L0.192,4.407 L0.205,4.389 C0.233,4.353 0.26,4.323 0.288,4.295 L4.288,0.295 C4.67849985,-0.0953819383 5.31150015,-0.0953819383 5.702,0.295 L5.707,0.293 Z" transform="rotate(180 6.5 5)"/>
</svg>
