<svg xmlns="http://www.w3.org/2000/svg" width="13" height="10" viewBox="0 0 13 10"><path fill="#11142d" d="M5.707.293a1 1 0 0 1 .083 1.32l-.083.094L3.415 4h7.914a1 1 0 0 1 .117 1.993L11.33 6H3.415l2.292 2.293a1 1 0 0 1 .083 1.32l-.083.094a1 1 0 0 1-1.32.083l-.094-.083-4-4-.073-.082.073.082a1.01 1.01 0 0 1-.097-.112l-.05-.075-.02-.037-.03-.06L.07 5.37.05 5.312.036 5.266.02 5.2.01 5.148.004 5.1 0 5.02v-.038l.004-.07L0 5a1.01 1.01 0 0 1 .011-.149L.02 4.8l.015-.065.014-.046.02-.06.023-.052.03-.06.02-.036.05-.074.013-.018c.028-.036.055-.066.083-.094l4-4a1 1 0 0 1 1.414 0z"/></svg>