<svg xmlns="http://www.w3.org/2000/svg" width="10" height="11" viewBox="0 0 10 11"><path fill="#11142d" d="M8.388 8.625a1 1 0 0 1-.992-.875l-.008-.125.001-3.243L1.79 9.98A1 1 0 0 1 .299 8.652l.078-.087 5.596-5.596H2.73a1 1 0 0 1-.992-.875l-.008-.125a1 1 0 0 1 .875-.992L2.73.968h5.657l.1.006-.1-.006a1.01 1.01 0 0 1 .147.011l.088.017.04.01.065.02.052.02.057.027.042.023.057.035.043.03.046.037.052.047.027.027.047.053-.06-.066a1.01 1.01 0 0 1 .098.113l.03.043.035.057.023.043.027.057.02.053.02.065.01.04.017.088.003.022c.005.045.008.085.008.125v5.657a1 1 0 0 1-1 1z"/></svg>