<svg xmlns="http://www.w3.org/2000/svg" width="14" height="14" viewBox="0 0 14 14"><path fill="#5f75ee" d="M6.225.083a1 1 0 0 1 .8 0h0l5.5 2.4a1 1 0 0 1 .6.917h0v7.2a1 1 0 0 1-.6.917h0l-5.5 2.4-.115.042-.025.007c-.037.01-.075.018-.113.024-.058.008-.102.01-.147.01a1.01 1.01 0 0 1-.132-.009c-.053-.008-.09-.016-.128-.025-.048-.013-.094-.03-.14-.05l.115.042a.99.99 0 0 1-.098-.035l-.017-.007-5.5-2.4a1 1 0 0 1-.6-.917h0V3.4a1 1 0 0 1 .6-.917h0zm-4.1 5.344v4.518l3.5 1.528V6.7l-3.5-1.273zm9 0L7.625 6.7v4.774l3.5-1.528V5.427zM6.625 2.1L3.068 3.642l3.557 1.294 3.557-1.294L6.625 2.1z"/></svg>