<svg width="12" height="12" viewBox="0 0 12 12" fill="none" xmlns="http://www.w3.org/2000/svg">
<path d="M6 9.75C7.275 9.75 8.25 8.775 8.25 7.5H3.75C3.75 8.775 4.725 9.75 6 9.75Z" fill="#808191"/>
<path fill-rule="evenodd" clip-rule="evenodd" d="M12 3.75C12 3 11.4 2.325 10.65 2.25C9.525 0.825 7.8 0 6 0C4.2 0 2.475 0.825 1.35 2.25C0.6 2.325 0 3 0 3.75V6C0 9.3 2.7 12 6 12C9.3 12 12 9.3 12 6V3.75ZM10.5 4.5V5.25H8.25V3.75H10.5V4.5ZM8.25 2.25H8.475C7.725 1.8 6.9 1.5 6 1.5C5.1 1.5 4.275 1.8 3.525 2.25H3.75C4.575 2.25 5.25 2.925 5.25 3.75H6.75C6.75 2.925 7.425 2.25 8.25 2.25ZM1.5 3.75H3.75V5.25H1.5V3.75ZM1.575 6.75C1.95 8.85 3.75 10.5 6 10.5C8.25 10.5 10.05 8.85 10.425 6.75H8.25C7.425 6.75 6.75 6.075 6.75 5.25H5.25C5.25 6.075 4.575 6.75 3.75 6.75H1.575Z" fill="#808191"/>
</svg>
