<svg width="10" height="12" viewBox="0 0 10 12" fill="none" xmlns="http://www.w3.org/2000/svg">
<path fill-rule="evenodd" clip-rule="evenodd" d="M7.67064 5.48731C8.39443 4.95658 8.8423 4.07125 8.73388 3.08158C8.5857 1.72911 7.35744 0.749993 5.99687 0.75H0.5V1.5L1.58541 2.04271C1.8395 2.16975 2 2.42945 2 2.71352V9.28647C2 9.57055 1.8395 9.83025 1.58541 9.95729L0.5 10.5V11.25H6.36699C7.94488 11.25 9.35229 10.0894 9.48839 8.5174C9.60565 7.16306 8.82225 5.97591 7.67064 5.48731ZM4.25 2.25H5C5.82841 2.25 6.5 2.92154 6.5 3.75C6.5 4.57841 5.82841 5.25 5 5.25H4.25V2.25ZM4.25 6.75V9.75H5.75C6.57841 9.75 7.25 9.07841 7.25 8.25C7.25 7.42154 6.57841 6.75 5.75 6.75H4.25Z" fill="white"/>
</svg>
