<svg width="14" height="13" viewBox="0 0 14 13" fill="none" xmlns="http://www.w3.org/2000/svg">
<path fill-rule="evenodd" clip-rule="evenodd" d="M1.75 3.00006H12.25C12.4524 2.98789 12.6503 3.06299 12.7937 3.20637C12.9371 3.34974 13.0122 3.54766 13 3.75006V11.2501C13.0122 11.4525 12.9371 11.6504 12.7937 11.7937C12.6503 11.9371 12.4524 12.0122 12.25 12.0001H1.75C1.5476 12.0122 1.34968 11.9371 1.20631 11.7937C1.06293 11.6504 0.987831 11.4525 0.999997 11.2501V3.75006C0.987831 3.54766 1.06293 3.34974 1.20631 3.20637C1.34968 3.06299 1.5476 2.98789 1.75 3.00006ZM2.5 10.5H11.5V4.5H2.5V10.5Z" fill="#808191"/>
<rect x="2.5" width="9" height="1.5" fill="#808191"/>
<path d="M4.75 9.75L8.5 6L10.75 9.75H4.75Z" fill="#808191"/>
<circle cx="4.75" cy="6.75" r="0.75" fill="#808191"/>
</svg>
