<svg xmlns="http://www.w3.org/2000/svg" width="21" height="19" viewBox="0 0 21 19"><path fill="#11142d" d="M15.324.25c1.565.018 3.055.68 4.122 1.83s1.617 2.69 1.526 4.214h0l-.001 6.484c.092 1.57-.46 3.107-1.525 4.258a5.71 5.71 0 0 1-4.13 1.83h0-9.428c-3.276 0-5.638-2.642-5.638-6.044h0V6.294C.25 2.892 2.612.25 5.888.25h0zm-.008 1.5H5.888C3.48 1.75 1.75 3.685 1.75 6.294h0v6.528c0 2.61 1.73 4.544 4.138 4.544h9.42c1.153-.013 2.25-.5 3.04-1.35s1.196-1.99 1.126-3.194h0l.001-6.572c.068-1.16-.34-2.3-1.127-3.15s-1.885-1.337-3.03-1.35h0zm1.536 4.34a.75.75 0 0 1-.033.979l-.08.076-4.273 3.44c-1.025.804-2.442.844-3.51.117l-.166-.12-4.302-3.434a.75.75 0 0 1 .844-1.235l.092.063 4.297 3.43c.494.388 1.17.417 1.687.094l.126-.088 4.265-3.434a.75.75 0 0 1 1.055.114z"/></svg>