<svg xmlns="http://www.w3.org/2000/svg" width="22" height="16" viewBox="0 0 22 16"><path fill="#808191" d="M11 0c2.843 0 5.44 1.35 7.752 3.59.81.786 1.537 1.635 2.174 2.5h0l.29.402.13.188.23.347.1.158.188.3a1 1 0 0 1 .004.999h0l-.128.215-.172.27-.215.323-.258.37a20.17 20.17 0 0 1-2.138 2.532C16.6 14.565 13.934 16 11 16s-5.6-1.435-7.957-3.793A20.17 20.17 0 0 1 .905 9.675h0l-.258-.37-.215-.323-.172-.27-.128-.215a1 1 0 0 1 0-.992h0L.26 7.29l.172-.27.215-.323.258-.37a20.17 20.17 0 0 1 2.138-2.532C5.4 1.435 8.066 0 11 0zm0 2C8.684 2 6.475 3.2 4.457 5.207a18.19 18.19 0 0 0-1.925 2.28l-.27.39L2.18 8l.082.12.27.39a18.19 18.19 0 0 0 1.925 2.28C6.475 12.8 8.684 14 11 14s4.525-1.2 6.543-3.207a18.19 18.19 0 0 0 1.925-2.28l.27-.39.08-.122-.133-.198-.24-.34-.133-.183c-.574-.78-1.23-1.547-1.954-2.25C15.387 3.116 13.242 2 11 2zm0 2a4 4 0 1 1 0 8 4 4 0 1 1 0-8zm0 2a2 2 0 1 0 0 4 2 2 0 1 0 0-4z"/></svg>