<svg xmlns="http://www.w3.org/2000/svg" width="18" height="18" viewBox="0 0 18 18">
  <path fill="#11142D" d="M3.5,6.5 C4.05228475,6.5 4.5,6.94771525 4.5,7.5 L4.5,7.5 L4.5,15.5 C4.5,16.0522847 4.05228475,16.5 3.5,16.5 L3.5,16.5 L0.5,16.5 C-0.0522847498,16.5 -0.5,16.0522847 -0.5,15.5 L-0.5,15.5 L-0.5,7.5 C-0.5,6.94771525 -0.0522847498,6.5 0.5,6.5 L0.5,6.5 Z M7.5,-0.5 C9.09768137,-0.5 10.4036609,0.748919499 10.4949073,2.32372716 L10.5,2.5 L10.5,5.5 L13.5051722,5.5 C14.3510661,5.49845558 15.1550566,5.8538879 15.7223958,6.47313713 L15.8490307,6.62068153 C16.3758769,7.27614465 16.6013866,8.11979215 16.4774766,8.94508774 L16.4391917,9.15090979 L15.328167,14.1510208 C15.036342,15.4636592 13.9101182,16.4140493 12.5822617,16.4944731 L12.4,16.5 L5.5,16.5 C4.94771525,16.5 4.5,16.0522847 4.5,15.5 C4.5,14.9871642 4.88604019,14.5644928 5.38337887,14.5067277 L5.5,14.5 L12.3997866,14.5 C12.829379,14.4999083 13.2060784,14.2264183 13.344195,13.8285666 L13.3758083,13.7170902 L14.4868331,8.71697888 C14.5527337,8.42055626 14.4803828,8.11030805 14.2900889,7.87355843 C14.1270729,7.67069261 13.8926092,7.5407367 13.6365805,7.50809711 L13.507,7.5 L9.5,7.5 C8.98716416,7.5 8.56449284,7.11395981 8.50672773,6.61662113 L8.5,6.5 L8.5,2.5 C8.5,2.22385737 8.38807131,1.97385737 8.20710697,1.79289303 L8.142,1.734 L6.4486833,6.81622777 C6.28651037,7.30274656 5.78662008,7.58165116 5.29653624,7.47917965 L5.18377223,7.4486833 C4.69725344,7.28651037 4.41834884,6.78662008 4.52082035,6.29653624 L4.5513167,6.18377223 L6.5513167,0.183772234 C6.68743075,-0.224569905 7.06956959,-0.5 7.5,-0.5 Z M2.5,8.5 L1.5,8.5 L1.5,14.5 L2.5,14.5 L2.5,8.5 Z" transform="translate(1 1)"/>
</svg>
