<svg xmlns="http://www.w3.org/2000/svg" width="16" height="11" viewBox="0 0 16 11">
  <path fill="#FFF" d="M7.7165,7 C8.8210695,7 9.7165,7.8954305 9.7165,9 C9.7165,10.1045695 8.8210695,11 7.7165,11 C6.6119305,11 5.7165,10.1045695 5.7165,9 C5.7165,7.8954305 6.6119305,7 7.7165,7 Z M12.3093789,5.34233734 C12.7000625,5.73270225 12.7003209,6.36586717 12.309956,6.75655079 C11.9195911,7.1472344 11.2864262,7.14749277 10.8957426,6.75712787 C9.13868076,5.00149945 6.29144074,5.00149945 4.53437893,6.75712787 C4.14369532,7.14749277 3.51053039,7.1472344 3.12016549,6.75655079 C2.72980058,6.36586717 2.73005895,5.73270225 3.12074257,5.34233734 C5.65872073,2.80642962 9.77140077,2.80642962 12.3093789,5.34233734 Z M15.1385608,3.19733358 C15.529144,3.5877989 15.5292396,4.22096387 15.1387743,4.61154713 C14.748309,5.00213039 14.115144,5.002226 13.7245608,4.61176068 C10.405312,1.2935142 5.02480949,1.2935142 1.70556075,4.61176068 C1.31497749,5.002226 0.681812522,5.00213039 0.291347204,4.61154713 C-0.0991181144,4.22096387 -0.0990225065,3.5877989 0.29156075,3.19733358 C4.39180919,-0.901676768 11.0383123,-0.901676768 15.1385608,3.19733358 Z"/>
</svg>
