<svg xmlns="http://www.w3.org/2000/svg" width="22" height="22" viewBox="0 0 22 22">
  <path fill="#FFF" d="M10,-1 C10.5128358,-1 10.9355072,-0.61395981 10.9932723,-0.116621125 L11,0 L11,9 L20,9 C20.5522847,9 21,9.44771525 21,10 C21,10.5128358 20.6139598,10.9355072 20.1166211,10.9932723 L20,11 L11,11 L11,20 C11,20.5522847 10.5522847,21 10,21 C9.48716416,21 9.06449284,20.6139598 9.00672773,20.1166211 L9,20 L9,11 L0,11 C-0.55228475,11 -1,10.5522847 -1,10 C-1,9.48716416 -0.61395981,9.06449284 -0.116621125,9.00672773 L0,9 L9,9 L9,0 C9,-0.55228475 9.44771525,-1 10,-1 Z" transform="translate(1 1)"/>
</svg>
