<svg xmlns="http://www.w3.org/2000/svg" width="17" height="21" viewBox="0 0 17 21"><path fill="#11142d" d="M6.317 13.534c1.502-.132 3.013-.132 4.516 0h0l.48.04c.656.064 1.308.165 1.95.302 1.634.335 2.82.93 3.346 2.033a3.02 3.02 0 0 1 0 2.594c-.527 1.106-1.728 1.705-3.333 2.02h0l-.486.1c-.65.124-1.305.21-1.956.253-1.222.104-2.45.122-3.633.058h0l-.235-.001-.2-.007-.206-.015c-.094-.01-.17-.02-.213-.034-.824-.056-1.642-.174-2.427-.35h0l-.266-.055c-1.486-.33-2.587-.922-3.096-1.97-.193-.407-.293-.85-.292-1.298s.1-.894.3-1.308c.53-1.06 1.776-1.7 3.334-2.018a17.47 17.47 0 0 1 2.434-.343zM10.7 15.03c-1.415-.124-2.838-.124-4.267.001a16.06 16.06 0 0 0-2.244.316c-1.152.236-2.032.687-2.294 1.21a1.47 1.47 0 0 0-.145.646c0 .227.05.452.144.65.27.555 1.1.97 2.318 1.207h0l.367.077c.614.12 1.247.205 1.95.258.09.018.185.03.298.034h0l.4.007a25.13 25.13 0 0 0 3.478-.054 15.06 15.06 0 0 0 2.25-.326h0l.234-.05c1.07-.24 1.81-.636 2.052-1.148a1.52 1.52 0 0 0 0-1.305c-.26-.547-1.084-.96-2.298-1.21a16.23 16.23 0 0 0-2.24-.315h0zM8.58.25a5.53 5.53 0 0 1 5.528 5.528 5.53 5.53 0 0 1-5.528 5.528 5.53 5.53 0 0 1-5.528-5.528A5.53 5.53 0 0 1 8.579.25zm0 1.5a4.03 4.03 0 0 0-4.028 4.028 4.03 4.03 0 0 0 4.028 4.028 4.03 4.03 0 0 0 4.028-4.028A4.03 4.03 0 0 0 8.579 1.75z"/></svg>