<svg xmlns="http://www.w3.org/2000/svg" width="18" height="18" viewBox="0 0 18 18">
  <path fill="#808191" d="M15.5,2.5 C16.0128358,2.5 16.4355072,2.88604019 16.4932723,3.38337887 L16.5,3.5 L16.5,12.5 C16.5,13.0128358 16.1139598,13.4355072 15.6166211,13.4932723 L15.5,13.5 L7.915,13.5 L9.20710678,14.7928932 C9.56759074,15.1533772 9.59532028,15.7206082 9.29029539,16.1128994 L9.20710678,16.2071068 C8.84662282,16.5675907 8.27939176,16.5953203 7.88710056,16.2902954 L7.79289322,16.2071068 L4.79289322,13.2071068 L4.71968877,13.125449 C4.7173721,13.1225624 4.71507113,13.1196628 4.71278596,13.1167501 L4.79289322,13.2071068 C4.75749917,13.1717127 4.72531295,13.1343256 4.69633458,13.0953066 C4.67849009,13.0711307 4.6617187,13.046275 4.64606743,13.0206602 C4.63860692,13.0086131 4.63149883,12.9963944 4.62467117,12.9840621 C4.61379392,12.9642939 4.60337664,12.9438914 4.59365378,12.9230991 C4.58567905,12.9060985 4.57819642,12.8887956 4.57122549,12.871336 C4.56331574,12.8515792 4.55612249,12.8317977 4.54954668,12.8117364 C4.54472872,12.7968513 4.54009773,12.7814633 4.53584514,12.765993 C4.52983363,12.7444365 4.5246398,12.7227461 4.52016515,12.7007941 C4.51670217,12.6833753 4.51362808,12.665949 4.5110178,12.6484669 C4.50810098,12.6294204 4.50574796,12.6096949 4.50397748,12.5898018 C4.50189498,12.5659949 4.50063489,12.542681 4.50018615,12.5193545 C4.50006128,12.5129086 4.5,12.5064615 4.5,12.5 L4.50016755,12.4816379 C4.50059932,12.4579802 4.5018656,12.4343349 4.50396641,12.4107499 L4.5,12.5 C4.5,12.4493797 4.50376119,12.3996379 4.51101934,12.3510388 C4.51362808,12.334051 4.51670217,12.3166247 4.52024007,12.2992742 C4.5246398,12.2772539 4.52983363,12.2555635 4.53572097,12.2341604 C4.54009773,12.2185367 4.54472872,12.2031487 4.54973809,12.1878575 C4.55612249,12.1682023 4.56331574,12.1484208 4.57110396,12.1289415 C4.57819642,12.1112044 4.58567905,12.0939015 4.59367336,12.0767785 C4.60337664,12.0561086 4.61379392,12.0357061 4.62487577,12.015723 C4.63149883,12.0036056 4.63860692,11.9913869 4.64599545,11.9792912 C4.6617187,11.953725 4.67849009,11.9288693 4.69631351,11.9048407 C4.70071786,11.8987914 4.70517454,11.8929267 4.70970461,11.8871006 C4.73766884,11.8515341 4.76442691,11.8213595 4.79289322,11.7928932 L7.79289322,8.79289322 C8.18341751,8.40236893 8.81658249,8.40236893 9.20710678,8.79289322 C9.56759074,9.15337718 9.59532028,9.72060824 9.29029539,10.1128994 L9.20710678,10.2071068 L7.915,11.5 L14.5,11.5 L14.5,4.5 L13.5,4.5 C12.9871642,4.5 12.5644928,4.11395981 12.5067277,3.61662113 L12.5,3.5 C12.5,2.98716416 12.8860402,2.56449284 13.3833789,2.50672773 L13.5,2.5 L15.5,2.5 Z M8.11289944,-0.290295388 L8.20710678,-0.207106781 L11.2071068,2.79289322 C11.2355731,2.82135953 11.2623312,2.85153408 11.287214,2.88324992 L11.2071068,2.79289322 C11.2425008,2.82828727 11.274687,2.86567442 11.3036654,2.90469339 C11.3215099,2.92886931 11.3382813,2.95372505 11.3539326,2.97933981 C11.3613931,2.99138689 11.3685012,3.00360556 11.3753288,3.0159379 C11.3862061,3.03570605 11.3966234,3.0561086 11.4063462,3.07690085 C11.414321,3.0939015 11.4218036,3.11120435 11.4287745,3.12866398 C11.4366843,3.1484208 11.4438775,3.16820232 11.4504533,3.18826359 C11.4552713,3.20314866 11.4599023,3.21853672 11.4641549,3.23400703 C11.4701664,3.25556352 11.4753602,3.27725392 11.4798348,3.2992059 C11.4832978,3.31662474 11.4863719,3.33405099 11.4889822,3.35153313 C11.4920328,3.37147534 11.4944666,3.39211395 11.4962623,3.41293499 C11.4978436,3.43173451 11.4989053,3.44973363 11.4994829,3.46774538 C11.4998183,3.47778921 11.5,3.48887338 11.5,3.5 L11.4994506,3.53324678 C11.4988772,3.55059097 11.497855,3.56792309 11.496384,3.58522423 L11.5,3.5 C11.5,3.55062028 11.4962388,3.60036209 11.4889807,3.64896122 C11.4863719,3.66594901 11.4832978,3.68337526 11.4797599,3.70072576 C11.4753602,3.72274608 11.4701664,3.74443648 11.464279,3.76583961 C11.4599023,3.78146328 11.4552713,3.79685134 11.4502619,3.81214252 C11.4438775,3.83179768 11.4366843,3.8515792 11.428896,3.87105852 C11.4218036,3.88879565 11.414321,3.9060985 11.4063266,3.92322155 C11.3966234,3.9438914 11.3862061,3.96429395 11.3751242,3.98427695 C11.3685012,3.99639444 11.3613931,4.00861311 11.3540045,4.02070875 C11.3382813,4.04627495 11.3215099,4.07113069 11.3036865,4.0951593 C11.2992821,4.10120864 11.2948255,4.10707334 11.2902954,4.11289944 C11.2849289,4.11966276 11.2826279,4.12256244 11.2803112,4.12544899 L11.2071068,4.20710678 L8.20710678,7.20710678 C7.81658249,7.59763107 7.18341751,7.59763107 6.79289322,7.20710678 C6.43240926,6.84662282 6.40467972,6.27939176 6.70970461,5.88710056 L6.79289322,5.79289322 L8.085,4.5 L1.5,4.5 L1.5,11.5 L2.5,11.5 C3.01283584,11.5 3.43550716,11.8860402 3.49327227,12.3833789 L3.5,12.5 C3.5,13.0128358 3.11395981,13.4355072 2.61662113,13.4932723 L2.5,13.5 L0.5,13.5 C-0.0128358391,13.5 -0.435507161,13.1139598 -0.493272269,12.6166211 L-0.5,12.5 L-0.5,3.5 C-0.5,2.98716416 -0.11395981,2.56449284 0.383378875,2.50672773 L0.5,2.5 L8.085,2.5 L6.79289322,1.20710678 C6.43240926,0.84662282 6.40467972,0.279391764 6.70970461,-0.112899443 L6.79289322,-0.207106781 C7.15337718,-0.567590743 7.72060824,-0.595320278 8.11289944,-0.290295388 Z" transform="translate(1 1)"/>
</svg>
