<svg xmlns="http://www.w3.org/2000/svg" width="16" height="16" viewBox="0 0 16 16"><path fill="#fff" d="M15.135 6.784a2 2 0 0 1-1.23-2.969c.322-.536.225-.998-.094-1.316l-.3-.3c-.318-.318-.78-.415-1.316-.094A2 2 0 0 1 9.216.865C9.065.258 8.67 0 8.22 0H7.78c-.45 0-.845.258-.997.865a2 2 0 0 1-2.969 1.23c-.536-.322-1-.225-1.317.093l-.3.3c-.318.318-.415.78-.093 1.317a2 2 0 0 1-1.23 2.969C.26 6.935 0 7.33 0 7.78v.438c0 .45.258.845.865.997a2 2 0 0 1 1.23 2.969c-.322.536-.225.998.094 1.316l.3.3c.32.32.782.415 1.316.094a2 2 0 0 1 2.969 1.23c.15.607.547.865.997.865h.438c.45 0 .845-.258.997-.865a2 2 0 0 1 2.969-1.23c.535.32.997.225 1.316-.094l.3-.3c.318-.318.415-.78.094-1.316a2 2 0 0 1 1.23-2.969c.607-.15.865-.547.865-.997V7.78c0-.45-.26-.846-.865-.997zM8 11a3 3 0 1 1 0-6 3 3 0 1 1 0 6z"/></svg>