<svg xmlns="http://www.w3.org/2000/svg" width="22" height="22" viewBox="0 0 22 22"><path fill="#808191" d="M6 6a1 1 0 0 1 .117 1.993L6 8H2v12h14v-6a1 1 0 0 1 .883-.993L17 13a1 1 0 0 1 .993.883L18 14v7a1 1 0 0 1-.883.993L17 22H1a1 1 0 0 1-.993-.883L0 21V7a1 1 0 0 1 .883-.993L1 6h5zM17.613.2l.094.083 4 4c.028.028.055.06.08.1l-.08-.1a1.01 1.01 0 0 1 .097.112l.05.075.02.037.03.06.022.052.022.06.014.046.016.065.01.052.007.06.003.055V5v.03l-.003.054L22 5a1.01 1.01 0 0 1-.011.149l-.01.052-.015.065-.014.046-.02.06-.023.052-.03.06-.02.036-.05.074-.013.018-.067.078-.016.016-4 4a1 1 0 0 1-1.497-1.32l.083-.094L18.585 6H18a9 9 0 0 0-9 9 1 1 0 1 1-2 0C7 9.02 11.77 4.157 17.712 4.004L18 4h.585l-2.292-2.293a1 1 0 0 1-.083-1.32l.083-.094a1 1 0 0 1 1.32-.083z"/></svg>