<svg xmlns="http://www.w3.org/2000/svg" width="17" height="14" viewBox="0 0 17 14">
  <path fill="#11142D" d="M7,3.065 L6.88227488,3.0738087 C2.07400051,3.43540227 -1,6.21474775 -1,12 C-1,13.0074718 0.321397223,13.3826436 0.850805016,12.5254815 L1.00830523,12.2796649 C2.34269,10.2722854 4.22530206,9.28857976 6.74259935,9.05540302 L7,9.035 L7,12 C7,12.8543532 8.00211805,13.3152623 8.65079137,12.7592566 L15.6507914,6.7592566 C16.1164029,6.36016103 16.1164029,5.63983897 15.6507914,5.2407434 L8.65079137,-0.759256602 C8.00211805,-1.31526231 7,-0.85435322 7,0 L7,3.065 Z M9,2.174 L13.463,6 L9,9.825 L9,8 C9,7.44771525 8.55228475,7 8,7 L7.647748,7.00360934 C5.33562432,7.05143598 3.35423422,7.57661359 1.72976733,8.70092015 L1.433,8.915 L1.48826298,8.75522979 C2.42860384,6.13183063 4.69441823,5.033 8,5.033 C8.55228475,5.033 9,4.58528475 9,4.033 L9,2.174 Z" transform="translate(1 1)"/>
</svg>
