<svg xmlns="http://www.w3.org/2000/svg" width="22" height="22" viewBox="0 0 22 22"><path fill="#fff" d="M10.49.832c-.403.135-.734.426-.92.807L7.136 6.546c-.014.027-.043.05-.078.055l-5.444.79c-.343.06-.638.207-.875.424-.642.643-.642 1.64-.025 2.26l3.992 3.85c.015.015.024.042.02.068l-.952 5.4c-.058.35-.001.7.16 1.007.418.768 1.365 1.06 2.136.668l4.906-2.575c.03-.016.054-.016.074-.005l4.878 2.557c.32.16.667.214 1.006.162.863-.147 1.444-.944 1.312-1.797l-.955-5.428c-.005-.028.001-.046.015-.06l3.96-3.847c.246-.232.414-.55.466-.895.063-.42-.047-.847-.303-1.184a1.59 1.59 0 0 0-1.052-.613l-5.452-.8c-.025-.004-.05-.022-.06-.046l-2.442-4.92c-.138-.27-.34-.488-.588-.642l-.127-.07a1.59 1.59 0 0 0-1.218-.087zm.476 1.422L11 2.25l.034.01c.022.01.04.028.05.048l2.434 4.905c.224.463.67.79 1.188.87l5.463.792c.03.004.052.017.066.035s.017.035.014.054c-.002.01-.01.025-.02.035l-3.962 3.85a1.55 1.55 0 0 0-.452 1.413l.95 5.402c.004.024-.026.064-.074.072-.02.003-.053-.002-.08-.016l-4.855-2.545c-.456-.248-1.02-.248-1.488.006l-4.886 2.565c-.04.02-.102.002-.126-.043-.004-.008-.007-.028-.004-.047l.95-5.405c.088-.514-.08-1.035-.45-1.4L1.765 9.004c-.023-.023-.023-.074.01-.107l.042-.017c.01-.004.024-.007.037-.01l5.433-.787c.523-.086.962-.408 1.192-.87l2.44-4.915c.012-.024.028-.038.048-.045z"/></svg>