<svg xmlns="http://www.w3.org/2000/svg" width="23" height="23" viewBox="0 0 23 23"><path fill="#808191" d="M13.313 5.302a1 1 0 0 1 1.414 0h0l2.97 2.97a1 1 0 0 1 0 1.414h0l-2.864 2.867c-.036.054-.078.106-.126.154s-.1.09-.155.127l-9.865 9.863a1 1 0 0 1-1.414 0h0l-2.97-2.97a1 1 0 0 1 0-1.414h0l9.864-9.867c.036-.054.078-.106.126-.154s.1-.1.154-.126zm-2.3 5.127l-8.6 8.59 1.555 1.555 8.6-8.59-1.555-1.555zm8.498 2.68l.094.083.8.8a1 1 0 0 1-1.32 1.497l-.094-.083-.8-.8a1 1 0 0 1 1.32-1.497zM14.02 7.423l-1.592 1.59 1.555 1.555 1.592-1.59-1.555-1.555zM22 8a1 1 0 0 1 .117 1.993L22 10h-1a1 1 0 0 1-.117-1.993L21 8h1zm-1.593-5.407a1 1 0 0 1 .083 1.32l-.083.094-.8.8a1 1 0 0 1-1.497-1.32l.083-.094.8-.8a1 1 0 0 1 1.414 0zM8.913 2.5l.094.083.8.8a1 1 0 0 1-1.32 1.497l-.094-.083-.8-.8a1 1 0 0 1 1.32-1.497zM14 0a1 1 0 0 1 .993.883L15 1v1a1 1 0 0 1-1.993.117L13 2V1a1 1 0 0 1 1-1z"/></svg>